<?xml version="1.0" standalone="no"?><!DOCTYPE svg PUBLIC "-//W3C//DTD SVG 1.1//EN" "http://www.w3.org/Graphics/SVG/1.1/DTD/svg11.dtd"><svg t="1722236295146" class="icon" viewBox="0 0 1024 1024" version="1.1" xmlns="http://www.w3.org/2000/svg" p-id="11398" xmlns:xlink="http://www.w3.org/1999/xlink" width="200" height="200"><path d="M928 1024H96a96 96 0 0 1-96-96v-224S128 149.024 128 96a96 96 0 0 1 96-96h576a96 96 0 0 1 96 96c0 53.024 128 608 128 608v224a96 96 0 0 1-96 96zM768 128H256L128 704h256v96a32 32 0 0 0 32 32h192a32 32 0 0 0 32-32v-96h256zM256 512a64 64 0 0 1 64-64h384a64 64 0 0 1 0 128H320a64 64 0 0 1-64-64z m384-128h-256a64 64 0 0 1 0-128h256a64 64 0 0 1 0 128z" fill="#d81e06" p-id="11399"></path></svg>