<?xml version="1.0" standalone="no"?>
<!DOCTYPE svg PUBLIC "-//W3C//DTD SVG 1.1//EN" "http://www.w3.org/Graphics/SVG/1.1/DTD/svg11.dtd">
<svg t="1705768559968" class="icon" viewBox="0 0 1024 1024" version="1.1"
     xmlns="http://www.w3.org/2000/svg" p-id="15800" xmlns:xlink="http://www.w3.org/1999/xlink" width="38.71875" height="32">
  <path d="M894.13 1024H129.87C58.144 1024 0 965.856 0 894.13v-458.04c0-71.726 58.144-129.87 129.87-129.87h764.26c71.726 0 129.87 58.144 129.87 129.87v458.04C1024 965.856 965.854 1024 894.13 1024z" fill="#5ED4E3" p-id="15801"></path><path d="M894.13 306.222H129.87C58.144 306.222 0 364.366 0 436.09v40c0-71.724 58.144-129.87 129.87-129.87h764.26c71.724 0 129.87 58.144 129.87 129.87v-40c0-71.724-58.146-129.868-129.87-129.868z" fill="#69EBFC" p-id="15802"></path><path d="M894.13 984H129.87C58.144 984 0 925.856 0 854.13v40C0 965.856 58.144 1024 129.87 1024h764.26C965.854 1024 1024 965.856 1024 894.13v-40C1024 925.856 965.854 984 894.13 984z" fill="#56C1CF" p-id="15803"></path><path d="M129.87 964C91.344 964 60 932.656 60 894.13v-458.04c0-38.528 31.344-69.872 69.87-69.872h764.26c38.526 0 69.87 31.344 69.87 69.872v458.04C964 932.656 932.656 964 894.13 964H129.87z" fill="#69EBFC" p-id="15804"></path><path d="M146.126 412.57m-32.92 0a32.92 32.92 0 1 0 65.84 0 32.92 32.92 0 1 0-65.84 0Z" fill="#56C1CF" p-id="15805"></path><path d="M877.874 412.57m-32.92 0a32.92 32.92 0 1 0 65.84 0 32.92 32.92 0 1 0-65.84 0Z" fill="#56C1CF" p-id="15806"></path><path d="M877.874 427.568a14.956 14.956 0 0 1-10.756-4.544L512 57.694 156.882 423.024a14.998 14.998 0 0 1-21.21 0.3 14.998 14.998 0 0 1-0.3-21.21L512 14.654l376.628 387.458a15 15 0 0 1-0.3 21.21 14.94 14.94 0 0 1-10.454 4.246z" fill="#333399" p-id="15807"></path><path d="M512 48.692m-48.692 0a48.692 48.692 0 1 0 97.384 0 48.692 48.692 0 1 0-97.384 0Z" fill="#5861C7" p-id="15808"></path><path d="M512 20c23.464 0 43.048 16.598 47.66 38.694a48.88 48.88 0 0 0 1.032-10C560.692 21.8 538.892 0 512 0s-48.694 21.8-48.694 48.694c0 3.428 0.358 6.772 1.032 10C468.952 36.598 488.536 20 512 20z" fill="#8F95E6" p-id="15809"></path><path d="M139.276 738.182v-155.544c0-11.082 8.984-20.066 20.066-20.066h4.984c11.082 0 20.066 8.984 20.066 20.066v144.286h82.176c11.082 0 20.066 8.984 20.066 20.066v0.588c0 11.082-8.984 20.066-20.066 20.066H168.738c-16.272 0-29.462-13.19-29.462-29.462zM506.39 706.27c-5.47 12.794-13.038 24.024-22.704 33.692-9.668 9.668-21.194 17.284-34.568 22.848-13.38 5.566-27.978 8.352-43.798 8.352s-30.372-2.786-43.65-8.352c-13.284-5.562-24.756-13.08-34.422-22.558-9.668-9.468-17.188-20.602-22.558-33.398-5.374-12.786-8.056-26.512-8.056-41.158v-0.588c0-14.646 2.732-28.366 8.202-41.162 5.466-12.786 13.036-24.02 22.704-33.688s21.19-17.284 34.568-22.852c13.376-5.566 27.978-8.348 43.798-8.348s30.366 2.782 43.65 8.348c13.278 5.566 24.754 13.084 34.422 22.558 9.668 9.476 17.184 20.606 22.558 33.398 5.37 12.794 8.056 26.512 8.056 41.162v0.584c0.002 14.65-2.736 28.372-8.202 41.162zM616.732 769.11c-12.034 0-22.86-7.32-27.342-18.488l-63.164-157.354c-5.898-14.694 4.922-30.696 20.756-30.696h1.172a22.36 22.36 0 0 1 20.966 14.582l48.198 129.846 48.198-129.846a22.364 22.364 0 0 1 20.966-14.582c15.834 0 26.654 16.002 20.756 30.696l-63.164 157.354a29.46 29.46 0 0 1-27.342 18.488zM728.87 738.182v-146.146c0-16.272 13.19-29.462 29.462-29.462h104.86c11.082 0 20.066 8.984 20.066 20.066v0.004c0 11.082-8.984 20.066-20.066 20.066H773.4v41.602h76.61c11.082 0 20.066 8.984 20.066 20.066 0 11.082-8.984 20.066-20.066 20.066H773.4v43.064h91.258c11.082 0 20.066 8.984 20.066 20.066v0.004c0 11.082-8.984 20.066-20.066 20.066h-106.324c-16.274 0-29.464-13.19-29.464-29.462z" fill="#333399" p-id="15810"></path><path d="M372.656 609.262c23.26-0.242 32.72 15.456 32.72 15.456s9.148-15.214 32.406-15.456c23.26-0.242 40.83 19.232 41.018 37.374 0.188 18.142-2.5 31.136-35.98 59.642-21.214 18.06-36.322 26.684-36.322 26.684s-15.284-8.308-36.868-25.926c-34.064-27.804-37.02-40.742-37.21-58.882-0.188-18.142 16.976-38.65 40.236-38.892z" fill="#FF8354" p-id="15811"></path></svg>
