<?xml version="1.0" standalone="no"?><!DOCTYPE svg PUBLIC "-//W3C//DTD SVG 1.1//EN" "http://www.w3.org/Graphics/SVG/1.1/DTD/svg11.dtd"><svg t="1705831319366" class="icon" viewBox="0 0 1024 1024" version="1.1" xmlns="http://www.w3.org/2000/svg" p-id="82439" xmlns:xlink="http://www.w3.org/1999/xlink" width="32" height="32"><path d="M384.07 739.8a40 40 0 0 1-56.42-3.19c-14.7-16.47-29.47-56-13-70.7s57.93 1 72.63 17.48a40 40 0 0 1-3.21 56.41zM458.79 645.68a40 40 0 0 1-51.08-24.17c-7.43-20.78-6.26-63 14.51-70.4s53.32 22.7 60.74 43.48a40 40 0 0 1-24.17 51.09zM537.3 856.24c-50.79 18.16-96.9 19-115.06-31.73s3.39-120.34 54.17-138.51S588 708 606.13 758.73s-18.05 79.34-68.83 97.51zM621.49 630.86a40 40 0 1 1-79.12-11.24c3.1-21.84 23.77-58.63 45.61-55.53s36.61 44.91 33.51 66.77zM885.45 892.09A39.31 39.31 0 0 1 847 923.75h-83.4L752 864.82a949.72 949.72 0 0 1 62-564.36l7.35-16.77a1037.53 1037.53 0 0 1 77.33 294.67 1037.32 1037.32 0 0 1-13.23 313.73z" fill="#9B9B9B" p-id="82440"></path><path d="M183.93 233.37l1.13-2.58v-0.6a17.46 17.46 0 0 0-1.13 3.18z" fill="#303030" p-id="82441"></path><path d="M780.63 285.82l13-29.69H213.78l-2.1 4.79-10 22.76-7.36 16.78A950.08 950.08 0 0 0 114.66 699a18.23 18.23 0 0 1-17.73 18.55q0.43 12 1.19 23.95a18.25 18.25 0 0 1 19.13 16.92c0.24 3.53 0.34 4.55 0.52 6.62l0.32 3.57a18.24 18.24 0 0 1-15.93 19.67q1.64 14.85 3.76 29.67a18.24 18.24 0 0 1 20.74 15.12c1.7 10.54 3.61 21.22 5.67 31.72l5.37 27.27a39.29 39.29 0 0 0 38.49 31.66h550.25l-10.21-51.89a986.35 986.35 0 0 1 64.4-586z m-543.82 92.45a22.45 22.45 0 0 1-3.7-8.59l-1.39-7-0.63-3.23c-3.09-15.64 11.67-29.8 31-29.8h263c15.43 0 28.57 9.16 31 21.61l2 10.23c3.08 15.63-11.67 29.8-31 29.8h-263c-11.55 0.01-21.85-5.16-27.28-13.02zM384.07 739.8a40 40 0 0 1-56.42-3.19c-14.7-16.47-29.47-56-13-70.7s57.93 1 72.63 17.48a40 40 0 0 1-3.21 56.41z m38.15-188.69c20.78-7.44 53.32 22.7 60.74 43.48a40 40 0 1 1-75.25 26.92c-7.43-20.78-6.26-62.97 14.51-70.4zM537.3 856.24c-50.79 18.16-96.9 19-115.06-31.73s3.39-120.34 54.17-138.51S588 708 606.13 758.73s-18.05 79.34-68.83 97.51z m84.19-225.38a40 40 0 1 1-79.12-11.24c3.1-21.84 23.77-58.63 45.61-55.53s36.61 44.91 33.51 66.77z" fill="#FFFFFF" p-id="82442"></path><path d="M102.16 788.31c-0.22 0-0.44 0.05-0.66 0.08-0.53 0-1.07 0.07-1.6 0.07a18.23 18.23 0 0 1-18.14-16.66l-0.32-3.45c-0.2-2.29-0.3-3.42-0.58-7.32a18.24 18.24 0 0 1 16.91-19.48h0.35a18.25 18.25 0 0 1 19.13 16.92c0.24 3.53 0.34 4.55 0.52 6.62l0.32 3.57a18.24 18.24 0 0 1-15.93 19.65z" fill="#303030" p-id="82443"></path><path d="M384.07 739.8a40 40 0 0 1-56.42-3.19c-14.7-16.47-29.47-56-13-70.7s57.93 1 72.63 17.48a40 40 0 0 1-3.21 56.41zM458.79 645.68a40 40 0 0 1-51.08-24.17c-7.43-20.78-6.26-63 14.51-70.4s53.32 22.7 60.74 43.48a40 40 0 0 1-24.17 51.09zM537.3 856.24c-50.79 18.16-96.9 19-115.06-31.73s3.39-120.34 54.17-138.51S588 708 606.13 758.73s-18.05 79.34-68.83 97.51zM621.49 630.86a40 40 0 1 1-79.12-11.24c3.1-21.84 23.77-58.63 45.61-55.53s36.61 44.91 33.51 66.77z" fill="#FFFFFF" p-id="82444"></path><path d="M935 574.37a1074 1074 0 0 0-83.94-314l-7.73-17.62a18.19 18.19 0 0 0 0.7-5V118.59a54.77 54.77 0 0 0-54.73-54.72H239.78a54.78 54.78 0 0 0-54.72 54.72v112.2l-1.13 2.58-23 52.45A986.34 986.34 0 0 0 78.2 699.69a18.22 18.22 0 0 0 18.56 17.9h0.17A18.23 18.23 0 0 0 114.66 699a950.08 950.08 0 0 1 79.69-398.57l7.36-16.78 10-22.76 2.1-4.79h579.83l-13 29.69a986.35 986.35 0 0 0-64.4 586l10.21 51.89H176.19a39.29 39.29 0 0 1-38.49-31.66l-5.37-27.27c-2.06-10.5-4-21.18-5.67-31.72A18.24 18.24 0 0 0 105.92 818h-0.17a18.23 18.23 0 0 0-15.1 20.91c1.77 11 3.75 22 5.89 33l5.36 27.26a75.87 75.87 0 0 0 74.29 61.1H847a75.88 75.88 0 0 0 74.29-61.1A1074 1074 0 0 0 935 574.37zM221.54 219.49v-100.9a18.27 18.27 0 0 1 18.24-18.25H789.3a18.26 18.26 0 0 1 18.24 18.25v100.9z m663.91 672.6A39.31 39.31 0 0 1 847 923.75h-83.4L752 864.82a949.72 949.72 0 0 1 62-564.36l7.35-16.77a1037.53 1037.53 0 0 1 77.33 294.67 1037.32 1037.32 0 0 1-13.23 313.73z" fill="#303030" p-id="82445"></path><path d="M807.54 118.59v100.9h-586v-100.9a18.27 18.27 0 0 1 18.24-18.25H789.3a18.26 18.26 0 0 1 18.24 18.25z" fill="#FFFFFF" p-id="82446"></path><path d="M458.79 645.68a40 40 0 0 1-51.08-24.17c-7.43-20.78-6.26-63 14.51-70.4s53.32 22.7 60.74 43.48a40 40 0 0 1-24.17 51.09zM384.07 739.8a40 40 0 0 1-56.42-3.19c-14.7-16.47-29.47-56-13-70.7s57.93 1 72.63 17.48a40 40 0 0 1-3.21 56.41zM621.49 630.86a40 40 0 1 1-79.12-11.24c3.1-21.84 23.77-58.63 45.61-55.53s36.61 44.91 33.51 66.77zM537.3 856.24c-50.79 18.16-96.9 19-115.06-31.73s3.39-120.34 54.17-138.51S588 708 606.13 758.73s-18.05 79.34-68.83 97.51z" fill="#FFA766" p-id="82447"></path><path d="M527.16 391.3h-263c-11.6 0-21.9-5.17-27.33-13a22.45 22.45 0 0 1-3.7-8.59l-1.39-7-0.63-3.23c-3.09-15.64 11.67-29.8 31-29.8h263c15.43 0 28.57 9.16 31 21.61l2 10.23c3.15 15.61-11.6 29.78-30.95 29.78z" fill="#9B9B9B" p-id="82448"></path></svg>