<?xml version="1.0" standalone="no"?><!DOCTYPE svg PUBLIC "-//W3C//DTD SVG 1.1//EN" "http://www.w3.org/Graphics/SVG/1.1/DTD/svg11.dtd"><svg t="1705767912689" class="icon" viewBox="0 0 1239 1024" version="1.1" xmlns="http://www.w3.org/2000/svg" p-id="11130" width="38.71875" height="32" xmlns:xlink="http://www.w3.org/1999/xlink"><path d="M1231.698113 530.716981H8.090566l120.754717-257.569811H1110.943396l120.754717 257.569811z" fill="#34CA9D" p-id="11131"></path><path d="M30.188679 553.056604h1179.411321v366.128302H30.188679z" fill="#FFFFFF" p-id="11132"></path><path d="M1233.750943 943.215094H6.037736V528.90566h1227.713207z m-1179.41132-48.301886h1131.109434V577.207547H54.339623z" fill="#282D33" p-id="11133"></path><path d="M619.954717 115.924528l403.683019 287.879246H216.271698L619.954717 115.924528z" fill="#FFFFFF" p-id="11134"></path><path d="M1023.637736 427.954717H216.271698l-14.007547-43.833962L605.94717 96.603774h28.015094l403.683019 287.516981z m-731.89434-48.301887h656.422642L619.954717 145.630189z" fill="#282D33" p-id="11135"></path><path d="M348.860377 394.988679l271.09434-185.962264 270.973585 185.962264H348.860377z" fill="#34CA9D" p-id="11136"></path><path d="M271.698113 504.754717h696.392453v414.430189H271.698113z" fill="#FFFFFF" p-id="11137"></path><path d="M992.241509 943.215094H247.54717V480.603774h744.694339z m-696.392452-48.301886h648.090566V528.90566H295.849057z" fill="#282D33" p-id="11138"></path><path d="M24.150943 919.064151h1191.486793v80.664151H24.150943z" fill="#FFFFFF" p-id="11139"></path><path d="M1239.788679 1024H0V894.913208h1239.788679zM48.301887 975.698113h1143.184905v-32.483019H48.301887z" fill="#282D33" p-id="11140"></path><path d="M235.471698 403.803774h768.845283v100.950943H235.471698z" fill="#FFFFFF" p-id="11141"></path><path d="M1028.467925 528.90566H211.320755V379.65283h817.14717z m-768.845283-48.301886h720.543396v-52.649057H259.622642z" fill="#282D33" p-id="11142"></path><path d="M619.954717 112.90566z" fill="#FFFFFF" p-id="11143"></path><path d="M595.803774 0h48.301886v112.90566h-48.301886z" fill="#282D33" p-id="11144"></path><path d="M668.618868 99.260377V1.932075h149.49434l-21.49434 48.664151 21.49434 48.664151H668.618868zM489.539623 895.033962v-225.81132a73.177358 73.177358 0 0 0-146.354717 0v225.81132zM693.132075 895.033962v-225.81132a73.177358 73.177358 0 1 0-146.354717 0v225.81132zM896.603774 895.033962v-225.81132a73.177358 73.177358 0 1 0-146.233963 0v225.81132z" fill="#F8C44F" p-id="11145"></path><path d="M88.633962 631.426415h48.301887v64.362264h-48.301887zM171.109434 631.426415h48.301887v64.362264h-48.301887zM88.633962 728.030189h48.301887v64.362264h-48.301887zM171.109434 728.030189h48.301887v64.362264h-48.301887zM1020.377358 631.426415h48.301887v64.362264h-48.301887zM1102.973585 631.426415h48.301887v64.362264h-48.301887zM1020.377358 728.030189h48.301887v64.362264h-48.301887zM1102.973585 728.030189h48.301887v64.362264h-48.301887z" fill="#282D33" p-id="11146"></path><path d="M619.954717 315.411321m-36.226415 0a36.226415 36.226415 0 1 0 72.45283 0 36.226415 36.226415 0 1 0-72.45283 0Z" fill="#FFFFFF" p-id="11147"></path></svg>