<?xml version="1.0" standalone="no"?><!DOCTYPE svg PUBLIC "-//W3C//DTD SVG 1.1//EN" "http://www.w3.org/Graphics/SVG/1.1/DTD/svg11.dtd"><svg t="1707373428031" class="icon" viewBox="0 0 1024 1024" version="1.1" xmlns="http://www.w3.org/2000/svg" p-id="15979" xmlns:xlink="http://www.w3.org/1999/xlink" width="40" height="40"><path d="M905.8 796.3L511.6 947.5 139.4 797.1V403.5h766.4z" fill="#4880E5" p-id="15980"></path><path d="M511.6 962c-1.9 0-3.7-0.4-5.4-1.1L133.9 810.5c-5.5-2.2-9.1-7.5-9.1-13.5V403.5c0-8 6.5-14.5 14.5-14.5h766.5c8 0 14.5 6.5 14.5 14.5v392.8c0 6-3.7 11.4-9.3 13.6L516.8 961c-1.7 0.7-3.4 1-5.2 1zM153.9 787.3l357.8 144.6 379.6-145.6V418H153.9v369.3z" fill="#333333" p-id="15981"></path><path d="M516.2 774.2l-1.8 159.7-363-145.6V427.7L518 557.3z" fill="#76A0FC" p-id="15982"></path><path d="M912.1 421.1L538.2 567.5c-15.4 5.8-32.4 5.6-47.7-0.4L111.4 421.9c-11.2-4.5-18.6-15.3-18.6-27.4V301c0-12.3 7.7-23.3 19.2-27.6l392-145.7c14.6-5.4 30.6-5.2 45 0.5l363.5 144.9c11.2 4.5 18.5 15.3 18.5 27.4v93.1c0.1 12.2-7.5 23.2-18.9 27.5z" fill="#FFFFFF" p-id="15983"></path><path d="M514.9 586.2c-10.1 0-20.2-1.9-29.7-5.7l-379-145.1c-17-6.8-27.9-22.8-27.9-40.9V301c0-18.3 11.5-34.9 28.7-41.2l392-145.7c17.9-6.7 37.6-6.4 55.4 0.7L918 259.6c16.8 6.7 27.7 22.7 27.7 40.8v93.1c0 18.2-11.4 34.7-28.4 41.1L543.5 581c-9.3 3.5-19 5.2-28.6 5.2z m11-447.9c-5.7 0-11.3 1-16.8 3L117.1 287c-5.8 2.2-9.7 7.8-9.7 14v93.5c0 6.2 3.7 11.6 9.4 13.9l378.9 145.1c12.1 4.8 25.3 4.9 37.4 0.4l373.7-146.3c0.1 0 0.1 0 0.2-0.1 5.8-2.2 9.7-7.8 9.7-14v-93.1c0-6.1-3.7-11.6-9.4-13.9L543.7 141.7c-5.7-2.3-11.8-3.4-17.8-3.4z" fill="#333333" p-id="15984"></path><path d="M385.1 894.6l-112.6-42.9v-512l176.4-67.9 106.8 37.1-170.6 82.6z" fill="#76A0FC" p-id="15985"></path><path d="M385.1 909.2c-1.7 0-3.5-0.3-5.2-0.9l-112.7-43c-5.6-2.1-9.3-7.6-9.3-13.6v-512c0-6 3.7-11.4 9.3-13.5l176.4-67.9c3.2-1.2 6.7-1.3 10-0.2l106.8 37.1c5.6 1.9 9.4 7 9.7 12.9 0.3 5.9-2.9 11.4-8.2 13.9l-162.4 78.7v494c0 4.8-2.3 9.2-6.3 12-2.3 1.6-5.2 2.5-8.1 2.5zM287 841.7l83.6 31.9v-482c0-5.6 3.2-10.6 8.2-13.1l139.1-67.4-68.7-23.9L287 349.6v492.1z" fill="#333333" p-id="15986"></path><path d="M495.2 257.6l-39.4 41.2-183-105.1c-23.4-21.4-23.1-56 0.5-76.7l30.3-26.6c22.5-19.7 58.1-18.4 79.9 2.4l111.7 164.8z" fill="#76A0FC" p-id="15987"></path><path d="M455.8 313.4c-2.5 0-5-0.6-7.2-1.9l-183-105.1c-0.9-0.5-1.8-1.2-2.6-1.9-14.5-13.2-22.3-30.8-22.1-49.6 0.2-18.7 8.3-36 22.8-48.8L294 79.5c27.8-24.4 72.4-23.1 99.5 2.8 0.7 0.7 1.4 1.5 2 2.4l111.7 164.9c3.8 5.7 3.2 13.2-1.5 18.2L466.3 309c-2.8 2.8-6.6 4.4-10.5 4.4zM281.5 182l171.7 98.6 23.4-24.5-104.2-153.8c-16.6-14.8-42.8-15.4-59.2-1l-30.3 26.6c-8.2 7.2-12.8 16.9-12.9 27.2-0.2 10 3.9 19.5 11.5 26.9z" fill="#333333" p-id="15988"></path><path d="M651.6 894.6l112.7-42.9v-512l-176.5-67.9L481 308.9l170.6 82.6z" fill="#76A0FC" p-id="15989"></path><path d="M651.6 909.2c-2.9 0-5.8-0.9-8.2-2.6-3.9-2.7-6.3-7.2-6.3-12v-494l-162.4-78.7c-5.3-2.6-8.5-8.1-8.2-13.9 0.3-5.9 4.2-10.9 9.7-12.9L583.1 258c3.2-1.1 6.8-1.1 10 0.2l176.4 67.9c5.6 2.2 9.3 7.5 9.3 13.5v512c0 6-3.7 11.4-9.3 13.6l-112.7 43c-1.7 0.7-3.5 1-5.2 1zM518.9 311.1l139 67.4c5 2.4 8.2 7.5 8.2 13.1v482l83.6-31.9v-492l-162.2-62.4-68.6 23.8z" fill="#333333" p-id="15990"></path><path d="M543.2 269.1l39.8 47.4 210.2-105.6c24.8-20.3 24.7-53.8 1-74.4l-30-26.1c-21.9-19.1-58-19.8-81.6-2L543.2 269.1z" fill="#76A0FC" p-id="15991"></path><path d="M583 331c-4.2 0-8.3-1.8-11.1-5.2l-39.8-47.4c-4.6-5.5-4.5-13.4 0.1-18.8L671.5 98.8c0.7-0.8 1.4-1.5 2.2-2.1 29.1-22 73-20.8 99.9 2.6l30 26.1c14.7 12.8 23 30.6 22.7 48.8-0.3 18.4-8.8 35.3-24 47.8-0.8 0.7-1.7 1.3-2.7 1.7L589.5 329.5c-2.1 1-4.3 1.5-6.5 1.5z m-20.7-61.8l24.4 29.1 198.4-99.7c7.7-6.8 12.1-15.5 12.2-24.8 0.1-9.8-4.4-19.2-12.7-26.5l-30-26.1c-16.4-14.2-43.9-15.1-62.2-2.2L562.3 269.2z" fill="#333333" p-id="15992"></path><path d="M428.5 291a90.6 49.6 0 1 0 181.2 0 90.6 49.6 0 1 0-181.2 0Z" fill="#FFFFFF" p-id="15993"></path><path d="M519.1 355.1c-59 0-105.2-28.2-105.2-64.2s46.2-64.2 105.2-64.2S624.3 255 624.3 291s-46.2 64.1-105.2 64.1z m0-99.3c-43.6 0-76.1 18.5-76.1 35.1s32.6 35.1 76.1 35.1 76.1-18.6 76.1-35.1-32.5-35.1-76.1-35.1z" fill="#333333" p-id="15994"></path><path d="M193.9 680.2c-6.2 0-11.9-4-13.9-10.2-0.3-1-0.5-2.1-0.6-3.1-0.7-6.6 3.3-13.1 9.8-15.3 7.6-2.5 15.8 1.6 18.4 9.2 0.4 1.1 0.6 2.3 0.7 3.4 0.7 6.7-3.4 13.3-10.1 15.4-1.4 0.4-2.9 0.6-4.3 0.6zM192.9 640.5h-0.5c-8-0.3-14.3-7-14-15 0.2-5.2-0.3-24.7-0.7-43.6-1.2-49.2-1.4-66.4-0.4-71.8 1.5-7.9 9.1-13.1 17-11.6s13.1 9.1 11.6 17c-0.6 5.2 0.3 41.6 0.9 65.7 0.5 21.1 0.9 39.3 0.7 45.3-0.4 7.8-6.8 14-14.6 14z" fill="#FFFFFF" p-id="15995"></path></svg>
