<?xml version="1.0" standalone="no"?><!DOCTYPE svg PUBLIC "-//W3C//DTD SVG 1.1//EN" "http://www.w3.org/Graphics/SVG/1.1/DTD/svg11.dtd"><svg t="1705831271355" class="icon" viewBox="0 0 1024 1024" version="1.1" xmlns="http://www.w3.org/2000/svg" p-id="82269" xmlns:xlink="http://www.w3.org/1999/xlink" width="32" height="32"><path d="M759.671467 153.6H263.3728a35.84 35.84 0 0 0-33.28 49.083733L275.6608 317.098667c1.672533 4.232533 2.525867 8.704 2.525867 13.277866v487.287467l429.6704 34.986667a35.84 35.84 0 0 0 19.899733-4.164267L813.909333 802.133333a71.68 71.68 0 0 0 37.717334-63.146666V330.410667a35.84 35.84 0 0 0-2.525867-13.277867L792.9856 176.196267A35.84 35.84 0 0 0 759.671467 153.6z" fill="#EFC7A7" p-id="82270"></path><path d="M744.106667 351.744l37.6832 305.902933 39.185066-328.362666-48.878933-122.743467-69.973333-13.5168z" fill="#C99F7E" p-id="82271"></path><path d="M779.605333 448.853333L744.174933 804.864l58.9824-32.017067a35.84 35.84 0 0 0 18.3296-36.6592l-41.949866-287.402666z" fill="#C99F7E" p-id="82272"></path><path d="M263.850667 153.6a35.84 35.84 0 0 0-33.314134 49.083733L276.138667 317.098667c1.706667 4.232533 2.56 8.704 2.56 13.277866v487.287467l429.6704 34.986667a35.84 35.84 0 0 0 19.899733-4.164267L814.3872 802.133333a71.68 71.68 0 0 0 37.717333-63.146666V330.410667a35.84 35.84 0 0 0-2.56-13.277867L793.429333 176.196267A35.84 35.84 0 0 0 760.149333 153.6H263.850667z m0 30.8224h496.298666c1.536 0 2.935467 0.682667 3.8912 1.877333l0.750934 1.297067 56.1152 140.9024 0.273066 0.9216 0.1024 0.955733V738.986667c0 13.346133-6.5536 25.770667-17.271466 33.348266l-4.232534 2.628267-86.152533 46.353067-1.365333 0.512-1.4336 0.068266-401.339734-32.699733V330.376533c0-6.3488-0.9216-12.629333-2.696533-18.705066l-2.048-5.973334-45.568-114.414933a5.0176 5.0176 0 0 1 3.072-6.621867L263.850667 184.4224z" fill="#333333" p-id="82273"></path><path d="M248.900267 153.6H747.861333a35.84 35.84 0 0 1 34.474667 45.6704L745.472 328.4992a35.84 35.84 0 0 0-1.365333 9.8304v479.3344c0 19.797333-16.042667 35.84-35.84 35.84H242.346667a71.68 71.68 0 0 1-71.68-71.68V338.3296c0-3.345067 0.477867-6.621867 1.365333-9.8304L214.4256 179.6096A35.84 35.84 0 0 1 248.900267 153.6z" fill="#E3BD9F" p-id="82274"></path><path d="M170.666667 315.904m17.92 0l358.4 0q17.92 0 17.92 17.92l0 0q0 17.92-17.92 17.92l-358.4 0q-17.92 0-17.92-17.92l0 0q0-17.92 17.92-17.92Z" fill="#F5CBAA" p-id="82275"></path><path d="M747.8272 153.6a35.84 35.84 0 0 1 34.474667 45.6704L745.472 328.4992a35.84 35.84 0 0 0-1.365333 9.8304v479.3344c0 19.797333-16.042667 35.84-35.84 35.84H242.346667a71.68 71.68 0 0 1-71.68-71.68h465.92c19.797333 0 35.84-16.042667 35.84-35.84V321.365333c0-3.618133 0.546133-7.202133 1.6384-10.683733L719.701333 164.693333A35.84 35.84 0 0 0 721.3056 153.6h26.5216z" fill="#C99F7E" p-id="82276"></path><path d="M747.8272 153.6a35.84 35.84 0 0 1 34.474667 45.6704L745.472 328.4992a35.84 35.84 0 0 0-1.365333 9.8304v479.3344c0 19.797333-16.042667 35.84-35.84 35.84H242.346667a71.68 71.68 0 0 1-71.68-71.68V338.3296c0-3.345067 0.477867-6.621867 1.365333-9.8304L214.4256 179.6096A35.84 35.84 0 0 1 248.900267 153.6H747.861333z m0 30.8224H248.900267a5.0176 5.0176 0 0 0-4.096 2.1504l-0.7168 1.501867L201.5232 337.578667l-0.034133 0.682666v443.528534c0 21.060267 15.940267 38.4 36.420266 40.618666l4.437334 0.238934h465.92c2.218667 0 4.096-1.4336 4.778666-3.413334l0.238934-1.604266V338.3296c0-4.096 0.375467-8.226133 1.1264-12.288l1.4336-5.973333L752.64 190.805333a5.0176 5.0176 0 0 0-3.242667-6.144L747.861333 184.4224z" fill="#333333" p-id="82277"></path><path d="M314.026667 208.384m35.84 0l250.88 0q35.84 0 35.84 35.84l0 0q0 35.84-35.84 35.84l-250.88 0q-35.84 0-35.84-35.84l0 0q0-35.84 35.84-35.84Z" fill="#FFFFFF" p-id="82278"></path><path d="M600.746667 208.384a35.84 35.84 0 1 1 0 71.68H349.866667a35.84 35.84 0 1 1 0-71.68h250.88z m0 30.8224H349.866667a5.0176 5.0176 0 0 0-1.570134 9.796267l1.570134 0.238933h250.88a5.0176 5.0176 0 0 0 1.570133-9.762133l-1.570133-0.273067z" fill="#333333" p-id="82279"></path><path d="M338.568533 583.509333c2.1504 15.36 14.472533 26.282667 27.5456 24.4736 13.038933-1.8432 21.845333-15.7696 19.694934-31.1296-2.1504-15.36-14.472533-26.282667-27.511467-24.4736-13.073067 1.8432-21.879467 15.7696-19.729067 31.1296zM529.066667 610.167467c8.192 0.580267 16.145067-4.232533 20.855466-12.5952a33.4848 33.4848 0 0 0 1.979734-27.989334c-3.4816-8.977067-10.683733-14.848-18.875734-15.428266-8.192-0.580267-16.1792 4.1984-20.8896 12.5952a33.4848 33.4848 0 0 0-1.979733 27.989333c3.4816 8.977067 10.683733 14.848 18.875733 15.428267zM390.109867 533.9136c1.536 11.093333 7.611733 20.6848 15.906133 25.1904a20.002133 20.002133 0 0 0 24.302933-3.413333c6.724267-6.621867 9.898667-17.5104 8.362667-28.603734-1.570133-11.093333-7.611733-20.6848-15.940267-25.156266a20.002133 20.002133 0 0 0-24.2688 3.413333c-6.7584 6.587733-9.9328 17.476267-8.362666 28.5696zM482.474667 560.7424c13.550933-0.341333 24.234667-14.609067 23.825066-31.914667-0.375467-17.3056-11.6736-31.061333-25.258666-30.754133-8.738133 0.170667-16.725333 6.3488-20.855467 16.145067-4.164267 9.796267-3.8912 21.7088 0.682667 31.3344 4.608 9.557333 12.834133 15.36 21.6064 15.189333zM502.647467 616.686933c1.9456 26.624-21.504 44.305067-51.882667 46.523734-30.344533 2.2528-56.149333-11.810133-58.129067-38.4-2.048-26.589867 22.084267-47.0016 51.4048-52.224 31.3344 1.877333 56.661333 17.5104 58.606934 44.100266z" fill="#B48560" p-id="82280"></path></svg>