<?xml version="1.0" standalone="no"?><!DOCTYPE svg PUBLIC "-//W3C//DTD SVG 1.1//EN" "http://www.w3.org/Graphics/SVG/1.1/DTD/svg11.dtd"><svg t="1705773095883" class="icon" viewBox="0 0 1024 1024" version="1.1" xmlns="http://www.w3.org/2000/svg" p-id="51333" xmlns:xlink="http://www.w3.org/1999/xlink" width="32" height="32"><path d="M0 0h1024v1024H0z" fill="#FFFFFF" p-id="51334"></path><path d="M473 984C234.242 984 40 789.758 40 551S234.242 118 473 118 906 312.242 906 551 711.758 984 473 984z" fill="#D8DDE3" p-id="51335"></path><path d="M473 158C256.3 158 80 334.3 80 551S256.3 944 473 944 866 767.7 866 551 689.7 158 473 158m0-80C734.23 78 946 289.77 946 551S734.23 1024 473 1024 0 812.23 0 551 211.77 78 473 78z" fill="#505873" p-id="51336"></path><path d="M472 573.826V512l0.008-51.686c0.014-100.452 0.05-322.592 0.012-370.28L447.314 40.56H512c259.952 0 471.438 211.486 471.438 471.438l-40.004 0.676-0.144 39.324c-3.28-0.01-185.094-0.068-311.574-0.068-51.592 0-93.944 0.008-111.068 0.034L472 573.826z" fill="#FFFFFF" p-id="51337"></path><path d="M512 80.562c0.082 0.164 0 402.456 0 431.438 0.112-0.052 51.992-0.068 119.76-0.068 127.712 0 311.784 0.06 311.678 0.068 0-238.276-193.16-431.438-431.438-431.438m0-80C794.008 0.562 1023.438 229.992 1023.438 512c0 43.65-34.99 79.242-78.634 79.988a81.666 81.666 0 0 1-1.756 0.01c-7.172-0.008-186.254-0.066-311.286-0.066-62.734 0-111.766 0.012-118.284 0.054a79.968 79.968 0 0 1-44.92-12.81A80 80 0 0 1 432 512l0.008-51.692c0.016-112.634 0.06-365.804 0-378.716A80 80 0 0 1 512 0.56z" fill="#505873" p-id="51338"></path></svg>