<?xml version="1.0" standalone="no"?><!DOCTYPE svg PUBLIC "-//W3C//DTD SVG 1.1//EN" "http://www.w3.org/Graphics/SVG/1.1/DTD/svg11.dtd"><svg t="1705773263625" class="icon" viewBox="0 0 1024 1024" version="1.1" xmlns="http://www.w3.org/2000/svg" p-id="82249" xmlns:xlink="http://www.w3.org/1999/xlink" width="32" height="32"><path d="M21.333333 170.666667h981.333334v725.333333H21.333333z" fill="#567BFF" p-id="82250"></path><path d="M106.666667 128h405.333333v682.666667H106.666667z" fill="#ADB5D5" p-id="82251"></path><path d="M512 128h405.333333v682.666667H512z" fill="#96A1C3" p-id="82252"></path><path d="M128 128h384v682.666667H128z" fill="#CCD3EB" p-id="82253"></path><path d="M512 128h384v682.666667H512z" fill="#ADB5D5" p-id="82254"></path><path d="M512 128h362.666667v682.666667H512z" fill="#F7F9FF" p-id="82255"></path><path d="M149.333333 128h362.666667v682.666667H149.333333z" fill="#DEE3F3" p-id="82256"></path><path d="M832 512v213.333333H597.333333V512" fill="#A6C9FF" p-id="82257"></path><path d="M789.333333 426.666667l42.666667 85.333333h-85.333333l42.666666-85.333333z" fill="#586889" p-id="82258"></path><path d="M832 810.666667v85.333333h-85.333333V512h85.333333v298.666667z" fill="#6B95FF" p-id="82259"></path><path d="M746.666667 853.333333h85.333333v42.666667h-85.333333z" fill="#48DAE0" p-id="82260"></path><path d="M832 512l-42.666667-85.333333v85.333333h42.666667z" fill="#65769C" p-id="82261"></path><path d="M789.333333 853.333333h42.666667V533.333333h-42.666667v320z" fill="#A6C9FF" p-id="82262"></path><path d="M789.333333 853.333333h42.666667v42.666667h-42.666667z" fill="#B4F9FD" p-id="82263"></path><path d="M618.666667 533.333333h128v170.666667h-128z" fill="#00AB8D" p-id="82264"></path><path d="M704 853.333333v42.666667h42.666667v-85.333333h-42.666667v42.666666z" fill="#4C64E0" p-id="82265"></path><path d="M768 469.333333l-21.333333-42.666666-42.666667 85.333333h42.666667l21.333333-42.666667z" fill="#ADB5D5" p-id="82266"></path><path d="M704 512h42.666667v21.333333h-42.666667z" fill="#00AB8D" p-id="82267"></path><path d="M704 725.333333h42.666667v85.333334h-42.666667z" fill="#65769C" p-id="82268"></path><path d="M704 533.333333h42.666667v170.666667h-42.666667z" fill="#00735F" p-id="82269"></path><path d="M704 704h42.666667v21.333333h-42.666667z" fill="#00AB8D" p-id="82270"></path><path d="M106.666667 810.666667V170.666667H64v682.666666h640v-42.666666H106.666667zM832 810.666667h64v42.666666h-64z" fill="#4C64E0" p-id="82271"></path><path d="M896 128v682.666667h21.333333V128h-21.333333z" fill="#ADB5D5" p-id="82272"></path><path d="M874.666667 128v682.666667h21.333333V128h-21.333333z" fill="#CCD3EB" p-id="82273"></path><path d="M618.666667 533.333333h85.333333v170.666667h-85.333333z" fill="#567BFF" p-id="82274"></path><path d="M768 469.333333l-21.333333-42.666666-42.666667 85.333333h42.666667l21.333333-42.666667z" fill="#CCD3EB" p-id="82275"></path><path d="M704 512h42.666667v21.333333h-42.666667z" fill="#78A2FF" p-id="82276"></path><path d="M704 533.333333h42.666667v170.666667h-42.666667z" fill="#4C64E0" p-id="82277"></path><path d="M704 704h42.666667v21.333333h-42.666667z" fill="#78A2FF" p-id="82278"></path><path d="M256 256l64-42.666667 64 42.666667v42.666667l-64 42.666666-64-42.666666v-42.666667z" fill="#6B95FF" p-id="82279"></path><path d="M320 341.333333l64-42.666666 64 42.666666v42.666667l-64 42.666667-64-42.666667v-42.666667z" fill="#48DAE0" p-id="82280"></path><path d="M192 341.333333l64-42.666666 64 42.666666v42.666667l-64 42.666667-64-42.666667v-42.666667z" fill="#567BFF" p-id="82281"></path><path d="M704 917.333333H21.333333a21.333333 21.333333 0 0 1-21.333333-21.333333V170.666667a21.333333 21.333333 0 0 1 21.333333-21.333334h85.333334v42.666667H42.666667v682.666667h661.333333zM1002.666667 917.333333h-128v-42.666666h106.666666V192h-64V149.333333h85.333334a21.333333 21.333333 0 0 1 21.333333 21.333334v725.333333a21.333333 21.333333 0 0 1-21.333333 21.333333z" p-id="82282"></path><path d="M85.333333 277.333333h42.666667v42.666667H85.333333z" p-id="82283"></path><path d="M512 832H106.666667a21.333333 21.333333 0 0 1-21.333334-21.333333V362.666667h42.666667v426.666666h362.666667V149.333333H128v85.333334H85.333333V128a21.333333 21.333333 0 0 1 21.333334-21.333333h405.333333a21.333333 21.333333 0 0 1 21.333333 21.333333v682.666667a21.333333 21.333333 0 0 1-21.333333 21.333333zM917.333333 832h-42.666666v-42.666667h21.333333v-42.666666h42.666667v64a21.333333 21.333333 0 0 1-21.333334 21.333333z" p-id="82284"></path><path d="M704 832h-192a21.333333 21.333333 0 0 1-21.333333-21.333333V128a21.333333 21.333333 0 0 1 21.333333-21.333333h405.333333a21.333333 21.333333 0 0 1 21.333334 21.333333v576h-42.666667V149.333333H533.333333v640h170.666667z" p-id="82285"></path><path d="M832 917.333333h-85.333333a21.333333 21.333333 0 0 1-21.333334-21.333333V512a21.333333 21.333333 0 0 1 21.333334-21.333333h85.333333a21.333333 21.333333 0 0 1 21.333333 21.333333v384a21.333333 21.333333 0 0 1-21.333333 21.333333z m-64-42.666666h42.666667V533.333333h-42.666667z" p-id="82286"></path><path d="M812.8 521.536L789.333333 474.368l-23.466666 47.168-38.186667-19.072 42.666667-85.333333a22.229333 22.229333 0 0 1 38.186666 0l42.666667 85.333333zM704 746.666667h-106.666667a21.333333 21.333333 0 0 1-21.333333-21.333334V512a21.333333 21.333333 0 0 1 21.333333-21.333333h106.666667v42.666666h-85.333333v170.666667h85.333333zM170.666667 512h277.333333v42.666667H170.666667zM170.666667 597.333333h277.333333v42.666667H170.666667zM170.666667 682.666667h277.333333v42.666666H170.666667zM576 192h277.333333v42.666667H576zM576 277.333333h277.333333v42.666667H576zM576 362.666667h170.666667v42.666666h-170.666667zM320 362.666667a21.333333 21.333333 0 0 1-11.84-3.584l-64-42.666667A21.333333 21.333333 0 0 1 234.666667 298.666667v-42.666667a21.333333 21.333333 0 0 1 9.493333-17.749333l64-42.666667a21.333333 21.333333 0 0 1 23.68 0l64 42.666667A21.333333 21.333333 0 0 1 405.333333 256v42.666667a21.333333 21.333333 0 0 1-9.493333 17.749333l-64 42.666667A21.333333 21.333333 0 0 1 320 362.666667z m-42.666667-75.413334l42.666667 28.48 42.666667-28.437333v-19.84L320 238.933333l-42.666667 28.437334z" p-id="82287"></path><path d="M384 448a21.333333 21.333333 0 0 1-11.84-3.584l-64-42.666667A21.333333 21.333333 0 0 1 298.666667 384v-42.666667a21.333333 21.333333 0 0 1 9.493333-17.749333l64-42.666667a21.333333 21.333333 0 0 1 23.68 0l64 42.666667A21.333333 21.333333 0 0 1 469.333333 341.333333v42.666667a21.333333 21.333333 0 0 1-9.493333 17.749333l-64 42.666667A21.333333 21.333333 0 0 1 384 448z m-42.666667-75.413333l42.666667 28.48 42.666667-28.437334v-19.84L384 324.266667l-42.666667 28.437333z" p-id="82288"></path><path d="M256 448a21.333333 21.333333 0 0 1-11.84-3.584l-64-42.666667A21.333333 21.333333 0 0 1 170.666667 384v-42.666667a21.333333 21.333333 0 0 1 9.493333-17.749333l64-42.666667a21.333333 21.333333 0 0 1 23.68 0l64 42.666667A21.333333 21.333333 0 0 1 341.333333 341.333333v42.666667a21.333333 21.333333 0 0 1-9.493333 17.749333l-64 42.666667A21.333333 21.333333 0 0 1 256 448z m-42.666667-75.413333l42.666667 28.48 42.666667-28.437334v-19.84L256 324.266667l-42.666667 28.437333z" p-id="82289"></path></svg>