<?xml version="1.0" standalone="no"?><!DOCTYPE svg PUBLIC "-//W3C//DTD SVG 1.1//EN" "http://www.w3.org/Graphics/SVG/1.1/DTD/svg11.dtd"><svg t="1707372784549" class="icon" viewBox="0 0 1024 1024" version="1.1" xmlns="http://www.w3.org/2000/svg" p-id="14594" xmlns:xlink="http://www.w3.org/1999/xlink" width="32" height="32"><path d="M23 82.6h61.1c4.2 0 7.6 3.4 7.6 7.6 0 4.2-3.4 7.6-7.6 7.6H23c-4.2 0-7.6-3.4-7.6-7.6 0-4.2 3.4-7.6 7.6-7.6z" fill="#FFB400" p-id="14595"></path><path d="M53.6 52c4.2 0 7.6 3.4 7.6 7.6v61.1c0 4.2-3.4 7.6-7.6 7.6-4.2 0-7.6-3.4-7.6-7.6V59.6c0-4.2 3.4-7.6 7.6-7.6z" fill="#FFB400" p-id="14596"></path><path d="M358.4 122.3l29.5 7.9c4.1 1.1 6.5 5.3 5.4 9.4-1.1 4.1-5.3 6.5-9.4 5.4l-29.5-7.9c-4.1-1.1-6.5-5.3-5.4-9.4 1.2-4.1 5.3-6.5 9.4-5.4z" fill="#043EB8" p-id="14597"></path><path d="M412.8 79.4l7.9 29.5c1.1 4.1-1.3 8.3-5.4 9.4-4.1 1.1-8.3-1.3-9.4-5.4L398 83.3c-1.1-4.1 1.3-8.3 5.4-9.4 4.1-1 8.3 1.4 9.4 5.5z" fill="#2868F0" p-id="14598"></path><path d="M477.1 105l-21.6 21.6c-3 3-7.8 3-10.8 0-3-3-3-7.8 0-10.8l21.6-21.6c3-3 7.8-3 10.8 0 3 3 3 7.8 0 10.8z" fill="#8FB3FF" p-id="14599"></path><path d="M939 119.3c-25.3 0-45.8 20.5-45.8 45.9 0 25.3 20.5 45.8 45.8 45.8s45.9-20.5 45.9-45.8c-0.1-25.4-20.6-45.9-45.9-45.9z m0 76.4c-16.9 0-30.6-13.7-30.6-30.6 0-16.9 13.7-30.6 30.6-30.6s30.6 13.7 30.6 30.6c-0.1 16.9-13.8 30.6-30.6 30.6zM763.9 32L718 50.6v61.1l45.9-18.6V32z" fill="#FFB400" p-id="14600"></path><path d="M664.4 93.1l45.9 18.6V50.6L664.4 32v61.1z m99.5-67.2L714.7 6.5l-50.3 17.4 50.1 21.3 49.4-19.3z" fill="#FFD200" p-id="14601"></path><path d="M917.1 388.2l-458.5-61.1v242.3l458.5 48.1V388.2z" fill="#043EB8" p-id="14602"></path><path d="M91.8 406.4l366.8-79.3v275.1L91.8 681.5V406.4z" fill="#2868F0" p-id="14603"></path><path d="M519.7 498.1l397.4-109.9v519.6l-397.4 109.9V498.1z" fill="#043EB8" p-id="14604"></path><path d="M91.8 406.4l427.9 91.7v516.8L91.8 910.8V406.4z" fill="#2868F0" p-id="14605"></path><path d="M519.7 497.3L91.8 406.4 0.1 589.8l443.2 104.1 76.4-196.6z" fill="#8FB3FF" p-id="14606"></path><path d="M519.7 498.1l397.4-109.9 107 183.4L642 696.8 519.7 498.1z" fill="#2868F0" p-id="14607"></path><path d="M734.7 401.8s17-107.2 105.8-160.6c0 0 7.8 8.8 23.2 28.6 0 0-40.4-6.4-129 132z" fill="#8FB3FF" p-id="14608"></path><path d="M519.7 397.4s1.7-58.7 44.7-191.2c0 0 7.8 8.8 23.2 28.6 0 0-16.2 14.1-67.9 162.6z" fill="#2868F0" p-id="14609"></path><path d="M370.3 386.8s-48.4-142.2-166.9-206.4c0 0-19.8 27.7-41.5 36.5-0.1 0 136.3 47.5 208.4 169.9z" fill="#FFD200" p-id="14610"></path></svg>