<?xml version="1.0" standalone="no"?><!DOCTYPE svg PUBLIC "-//W3C//DTD SVG 1.1//EN" "http://www.w3.org/Graphics/SVG/1.1/DTD/svg11.dtd">
<svg t="1706627228476" class="icon" viewBox="0 0 1024 1024" version="1.1" xmlns="http://www.w3.org/2000/svg" p-id="10767" id="mx_n_1706627228477" width="25" height="25"><path d="M372.736 503.213419c0-48.326194 21.80129-91.499355 56.121806-120.237419L146.993548 98.204903a16.020645 16.020645 0 0 0-27.416774 11.363097v314.896516c0 83.968 56.914581 121.822968 56.914581 121.822968l140.816516 139.957677 88.130064-87.205161a155.879226 155.879226 0 0 1-32.701935-95.793548zM874.033548 460.139355l-140.816516-139.924645-84.661677 83.769806a156.37471 156.37471 0 0 1 35.344516 99.228903 156.407742 156.407742 0 0 1-59.458065 122.979097l279.155613 282.062452c10.107871 10.24 27.416774 2.972903 27.416775-11.396129V582.028387c0-84.001032-56.980645-121.856-56.980646-121.856z" fill="#CAE2FF" p-id="10768"></path><path d="M528.317935 697.806452c-106.694194 0-193.436903-87.304258-193.436903-194.526968 0-107.22271 86.775742-194.493935 193.436903-194.493936 106.628129 0 193.436903 87.271226 193.436904 194.493936s-86.808774 194.526968-193.436904 194.526968z m0-312.881549c-64.875355 0-117.627871 53.049806-117.62787 118.288516 0 65.23871 52.752516 118.288516 117.594838 118.288516 64.908387 0 117.660903-53.049806 117.660903-118.255483 0-65.271742-52.752516-118.321548-117.627871-118.321549z" fill="#143983" p-id="10769"></path><path d="M898.675613 431.137032l-112.904258-112.21058 168.926968-169.026065a54.205935 54.205935 0 0 0 11.825548-59.127742 53.512258 53.512258 0 0 0-49.845677-33.527742h-313.145807c-90.40929 0-138.504258 55.163871-150.065548 70.556903L341.916903 241.234581 173.749677 71.349677a53.743484 53.743484 0 0 0-83.076129 8.059871c-5.945806 8.91871-9.116903 19.456-9.083871 30.191484v314.896516c0 90.904774 54.899613 139.230968 70.193549 150.858323l112.904258 112.177548L95.793548 856.526452a54.205935 54.205935 0 0 0-11.825548 59.127742 53.611355 53.611355 0 0 0 49.87871 33.527741h287.413677c100.616258-3.534452 147.984516-25.765161 213.388387-108.775225l74.058323-75.313549 168.101161 169.818839a53.710452 53.710452 0 0 0 83.109161-8.059871c5.945806-8.91871 9.083871-19.422968 9.050839-30.158452v-314.698322c-0.099097-90.83871-55.064774-139.197935-70.292645-150.858323z m-298.380387 165.59071a116.934194 116.934194 0 0 1-164.830968-20.77729l-0.099097-0.198194a117.429677 117.429677 0 0 1-24.708129-72.472774 118.585806 118.585806 0 0 1 42.380387-90.970839l0.363355-0.363355 0.198194-0.132129a117.264516 117.264516 0 0 1 165.16129 15.822452l0.330323 0.363355c0.099097 0.066065 0.099097 0.132129 0.165161 0.198193 17.507097 21.404903 26.723097 47.335226 26.723097 75.016258 0 36.467613-16.450065 70.391742-44.989936 93.018839l-0.363355 0.363355c-0.198194 0.066065-0.264258 0.066065-0.330322 0.132129zM509.324387 179.365161c1.717677-1.783742 3.038968-3.303226 4.360258-5.318193 1.123097-1.651613 29.068387-40.596645 89.847742-40.596645h260.195097l-216.36129 216.559483a191.983484 191.983484 0 0 0-119.081291-41.224258c-32.933161 0-65.271742 8.48929-93.745548 24.377807L396.387097 294.317419 509.357419 179.365161zM197.764129 514.840774c-1.651613-1.123097-40.398452-29.233548-40.398452-90.343226v-261.615483l218.409291 220.589419a194.923355 194.923355 0 0 0-40.993033 119.741935c0 31.942194 7.597419 62.695226 22.131613 90.343226l-39.572645 39.110194-114.225548-113.432774a29.530839 29.530839 0 0 0-5.351226-4.393291zM541.068387 827.127742c-1.717677 1.783742-3.038968 3.303226-4.360258 5.351226-1.123097 1.651613-29.068387 40.563613-89.847742 40.563613H186.731355l219.069935-219.202065a191.587097 191.587097 0 0 0 122.516645 43.899871c31.777032 0 62.265806-7.630452 89.847742-22.197677l35.939097 36.731871-112.970322 114.853161z m351.925678 16.516129l-214.973936-217.253161a193.998452 193.998452 0 0 0 43.73471-123.177291 195.815226 195.815226 0 0 0-24.27871-94.274064l35.641806-35.24542 114.225549 113.531871c1.75071 1.717677 3.303226 3.038968 5.285161 4.360259 1.651613 1.156129 40.398452 29.233548 40.398452 90.343225v261.714581z" fill="#143983" p-id="10770"></path><path d="M478.472258 503.213419c0 13.278968 5.285161 25.996387 14.600258 35.410581a49.647484 49.647484 0 0 0 70.391742 0 50.209032 50.209032 0 0 0 0-70.788129 49.647484 49.647484 0 0 0-70.391742 0 50.209032 50.209032 0 0 0-14.600258 35.377548z" fill="#143983" p-id="10771"></path></svg>
