<?xml version="1.0" standalone="no"?><!DOCTYPE svg PUBLIC "-//W3C//DTD SVG 1.1//EN" "http://www.w3.org/Graphics/SVG/1.1/DTD/svg11.dtd"><svg t="1722236544295" class="icon" viewBox="0 0 1028 1024" version="1.1" xmlns="http://www.w3.org/2000/svg" p-id="16427" xmlns:xlink="http://www.w3.org/1999/xlink" width="200.78125" height="200"><path d="M514.686214 3.524465c323.836428-4.243647 528.255405 198.713153 509.894846 508.475535-10.244763 309.300391-214.66374 515.181544-509.894846 511.309395C219.464633 1027.181544 15.045656 821.300391 4.79613 512-13.564428 202.242381 190.854549-0.714419 514.686214 3.524465z" fill="#F8C51C" p-id="16428"></path><path d="M531.355981 876.353488v-95.255814c148.379981 0 269.097674-120.717693 269.097675-269.097674S679.740726 242.902326 531.355981 242.902326c-148.379981 0-269.097674 120.717693-269.097674 269.097674h-95.255814c0-200.904037 163.444688-364.353488 364.353488-364.353488s364.353488 163.449451 364.353489 364.353488c0 200.9088-163.444688 364.353488-364.353489 364.353488z" fill="#FFFFFF" p-id="16429"></path><path d="M591.043274 644.696112L474.202493 527.860093V359.576409h95.255814v128.828726l88.940353 88.935591z" fill="#FFFFFF" p-id="16430"></path></svg>