<?xml version="1.0" standalone="no"?><!DOCTYPE svg PUBLIC "-//W3C//DTD SVG 1.1//EN" "http://www.w3.org/Graphics/SVG/1.1/DTD/svg11.dtd"><svg t="1722229348347" class="icon" viewBox="0 0 1024 1024" version="1.1" xmlns="http://www.w3.org/2000/svg" p-id="5331" xmlns:xlink="http://www.w3.org/1999/xlink" width="200" height="200"><path d="M696.3 854.6c16.2 14.2 41.6 2.7 41.6-18.9V715.3h125.5c41.6 0 75.3-33.7 75.3-75.3V355.1H374c-41.6 0-75.3 33.7-75.3 75.3v284.9h238.4l159.2 139.3z" fill="#F4C708" p-id="5332"></path><path d="M712.6 882.2c-11 0-21.7-3.9-30.4-11.6l-153.1-134H160.6c-53.3 0-96.6-43.4-96.6-96.6V238.4c0-53.3 43.4-96.6 96.6-96.6h702.8c53.3 0 96.6 43.4 96.6 96.6V640c0 53.3-43.4 96.6-96.6 96.6H759.2v99c0 18.5-10.4 34.6-27.3 42.3-6.2 2.9-12.8 4.3-19.3 4.3z m-552-697.7c-29.8 0-54 24.2-54 54V640c0 29.8 24.2 54 54 54h376.5c5.2 0 10.2 1.9 14 5.3l159.2 139.3c0.5 0.4 1.8 1.7 4 0.6 2.2-1 2.2-2.8 2.2-3.4V715.3c0-11.8 9.5-21.3 21.3-21.3h125.5c29.8 0 54-24.2 54-54V238.4c0-29.8-24.2-54-54-54H160.6z" fill="#111111" p-id="5333"></path><path d="M499.5 426.7m-64 0a64 64 0 1 0 128 0 64 64 0 1 0-128 0Z" fill="#111111" p-id="5334"></path><path d="M742.9 426.7m-64 0a64 64 0 1 0 128 0 64 64 0 1 0-128 0Z" fill="#111111" p-id="5335"></path><path d="M277.3 426.7m-64 0a64 64 0 1 0 128 0 64 64 0 1 0-128 0Z" fill="#111111" p-id="5336"></path></svg>