<?xml version="1.0" standalone="no"?><!DOCTYPE svg PUBLIC "-//W3C//DTD SVG 1.1//EN" "http://www.w3.org/Graphics/SVG/1.1/DTD/svg11.dtd"><svg t="1747317913345" class="icon" viewBox="0 0 1024 1024" version="1.1" xmlns="http://www.w3.org/2000/svg" p-id="5658" xmlns:xlink="http://www.w3.org/1999/xlink" width="200" height="200"><path d="M947.707138 990.736632a726.676662 726.676662 0 0 0-81.87906-223.12044A390.46077 390.46077 0 0 0 512.212886 551.148426 391.484258 391.484258 0 0 0 157.574205 767.616192a716.441779 716.441779 0 0 0-80.855572 222.608696 37.869065 37.869065 0 0 1-37.869066 33.263368H33.220382a38.38081 38.38081 0 0 1-32.751624-44.009995 794.738631 794.738631 0 0 1 90.066966-249.731135 487.18041 487.18041 0 0 1 277.365317-234.37881A268.665667 268.665667 0 0 1 512.212886 0a268.665667 268.665667 0 0 1 268.665667 268.665667 269.689155 269.689155 0 0 1-124.353823 226.702649 485.645177 485.645177 0 0 1 276.853573 234.37881A785.527236 785.527236 0 0 1 1023.957013 979.478261a38.38081 38.38081 0 0 1-32.23988 43.498251h-5.629185a38.38081 38.38081 0 0 1-38.38081-32.23988zM320.308838 268.665667A191.904048 191.904048 0 1 0 512.212886 76.761619a192.415792 192.415792 0 0 0-191.904048 191.904048z" fill="#1296db" p-id="5659"></path><path d="M473.832076 908.345827v-127.936032l-102.348826-41.451274a38.38081 38.38081 0 0 1-21.493253-51.174413 38.892554 38.892554 0 0 1 51.174413-21.493253l113.607196 45.545227 113.607197-45.545227a38.892554 38.892554 0 0 1 51.174412 21.493253 38.38081 38.38081 0 0 1-21.493253 51.174413l-102.348826 41.963018v127.424288a38.892554 38.892554 0 0 1-38.380809 38.38081 38.38081 38.38081 0 0 1-38.38081-38.38081z" fill="#1296db" p-id="5660"></path></svg>