<?xml version="1.0" standalone="no"?><!DOCTYPE svg PUBLIC "-//W3C//DTD SVG 1.1//EN" "http://www.w3.org/Graphics/SVG/1.1/DTD/svg11.dtd"><svg t="1722229475355" class="icon" viewBox="0 0 1024 1024" version="1.1" xmlns="http://www.w3.org/2000/svg" p-id="6410" xmlns:xlink="http://www.w3.org/1999/xlink" width="200" height="200"><path d="M794.026667 763.562667H236.629333V425.216c0-84.821333 68.778667-153.6 153.6-153.6h403.797334v491.946667z" fill="#64EDAC" p-id="6411"></path><path d="M869.034667 148.309333H287.317333c-91.221333 0-165.376 74.154667-165.376 165.376v528.896c0 18.261333 14.762667 33.109333 33.109334 33.109334h713.898666c18.261333 0 33.109333-14.762667 33.109334-33.109334V181.418667c0-18.346667-14.762667-33.109333-33.024-33.109334z m-581.717334 66.133334h548.522667v264.533333c-41.728 1.194667-113.322667 10.496-188.16 53.248l-70.826667-86.954667c-6.570667-8.021333-16.213333-12.544-26.624-12.117333-10.325333 0.341333-19.882667 5.376-25.856 13.824l-53.077333 73.984-37.546667-62.122667a33.416533 33.416533 0 0 0-29.098666-15.957333c-11.861333 0.341333-22.698667 6.912-28.245334 17.408L237.824 716.885333c-15.530667 0.341333-32.085333 0.597333-49.749333 0.682667V313.685333c0-54.698667 44.544-99.242667 99.242666-99.242666z m245.418667 408.832c-0.597333-1.365333-1.109333-2.645333-1.792-3.925334l-22.272-36.778666 44.373333-61.952 39.936 49.152c-7.509333 6.058667-14.933333 12.373333-22.357333 19.285333-13.568 12.544-26.026667 23.893333-37.888 34.218667z m-50.346667 39.338666c-45.141333 30.208-90.538667 44.288-167.253333 50.602667l92.074667-170.581333 33.621333 55.637333c0 0.085333 0.085333 0.085333 0.085333 0.170667l33.450667 55.210666c2.048 3.584 4.864 6.570667 8.021333 8.96zM188.074667 809.557333v-25.770666c237.738667-1.621333 294.912-23.125333 427.52-146.176 83.541333-77.397333 174.848-90.965333 220.330666-92.416v264.448c0-0.085333-647.850667-0.085333-647.850666-0.085334z" fill="#333C4F" p-id="6412"></path><path d="M700.842667 321.536m-66.133334 0a66.133333 66.133333 0 1 0 132.266667 0 66.133333 66.133333 0 1 0-132.266667 0Z" fill="#333C4F" p-id="6413"></path></svg>