<?xml version="1.0" standalone="no"?><!DOCTYPE svg PUBLIC "-//W3C//DTD SVG 1.1//EN" "http://www.w3.org/Graphics/SVG/1.1/DTD/svg11.dtd"><svg t="1722253144695" class="icon" viewBox="0 0 1024 1024" version="1.1" xmlns="http://www.w3.org/2000/svg" p-id="4697" xmlns:xlink="http://www.w3.org/1999/xlink" width="200" height="200"><path d="M792.23 950.42h-562.4c-87.69 0-158.77-71.09-158.77-158.77v-562.4c0-87.69 71.09-158.77 158.77-158.77h562.4c87.69 0 158.77 71.09 158.77 158.77v562.4c0.01 87.68-71.08 158.77-158.77 158.77z" fill="#F7B52C" p-id="4698"></path><path d="M294.54 317.68m-139.79 0a139.79 139.79 0 1 0 279.58 0 139.79 139.79 0 1 0-279.58 0Z" fill="#FFFFFF" p-id="4699"></path><path d="M951.01 374.33c-4.26 2.17-8.25 5.04-11.64 8.8L657.72 695.88c-21.47 23.83-56.66 28.68-83.72 11.37L406.86 600.59c-53.46-34.07-122.23-29.93-171.16 10.4L71.07 746.65v44.99c0 17.96 3.12 35.15 8.62 51.25 1.11-0.74 2.37-1.07 3.43-1.94l203.75-167.91c21.98-18.04 52.81-19.93 76.73-4.64l167.13 106.66c60.32 38.47 138.86 27.86 186.79-25.35l233.5-259.29V374.33z" fill="#FFFFFF" p-id="4700"></path></svg>