<?xml version="1.0" standalone="no"?><!DOCTYPE svg PUBLIC "-//W3C//DTD SVG 1.1//EN" "http://www.w3.org/Graphics/SVG/1.1/DTD/svg11.dtd"><svg t="1722229542984" class="icon" viewBox="0 0 1025 1024" version="1.1" xmlns="http://www.w3.org/2000/svg" p-id="9465" xmlns:xlink="http://www.w3.org/1999/xlink" width="200.1953125" height="200"><path d="M475.667821 554.714091m-447.21344 0a447.21344 447.21344 0 1 0 894.426879 0 447.21344 447.21344 0 1 0-894.426879 0Z" fill="#F7F7FF" p-id="9466"></path><path d="M467.537997 123.760297c237.630665 0 430.961923 193.327194 430.961924 430.953794s-193.331259 430.953793-430.961924 430.953793S36.584204 792.34069 36.584204 554.714091C36.584204 317.083426 229.907333 123.760297 467.537997 123.760297zM4.064912 554.714091c0 255.556925 207.908031 463.473086 463.473085 463.473085s463.481216-207.908031 463.481216-463.473085c0-255.56099-207.912096-463.473086-463.481216-463.473086C211.977008 91.241005 4.064912 299.153101 4.064912 554.714091z" fill="#6E6E96" p-id="9467"></path><path d="M466.794119 325.522182c129.028423 0 234.000699 104.972276 234.000698 234.000699s-104.972276 234.004764-234.000698 234.004764c-129.032488 0-234.004764-104.976341-234.004764-234.004764-0.004065-129.028423 104.972276-234.000699 234.004764-234.000699z m-340.964782 234.000699c0 188.002159 152.954492 340.960716 340.964782 340.960716 188.002159 0 340.960716-152.958557 340.960716-340.960716 0-188.006224-152.958557-340.960716-340.960716-340.960716-188.010289 0-340.964781 152.954492-340.964782 340.960716z" fill="#FF8F8F" p-id="9468"></path><path d="M160.942043 577.115818c0-176.648862 143.710883-320.359745 320.36381-320.359744 108.606307 0 204.704881 54.376322 262.666455 137.288322-52.986122-104.021087-161.063991-175.478167-285.580362-175.478167-176.648862 0-320.359745 143.710883-320.359744 320.359745 0 68.03036 21.381435 131.129982 57.68516 183.063292a318.26225 318.26225 0 0 1-34.775319-144.873448z" fill="#FFC9C9" opacity=".56" p-id="9469"></path><path d="M466.794119 341.781829c120.065293 0 217.741052 97.679825 217.741052 217.741052 0 120.065293-97.67576 217.745117-217.741052 217.745117s-217.745117-97.679825-217.745118-217.745117c0-120.061228 97.679825-217.741052 217.745118-217.741052z m-250.268475 217.741052c0 137.991553 112.268792 250.260345 250.26441 250.260345s250.260345-112.268792 250.260345-250.260345c0-137.999682-112.264727-250.26441-250.260345-250.26441-137.995618 0.004065-250.26441 112.268792-250.26441 250.26441z" fill="#6E6E96" p-id="9470"></path><path d="M109.569691 559.522881c0 196.973419 160.251008 357.220363 357.224428 357.220363s357.220363-160.246943 357.220362-357.220363c0-196.977484-160.251008-357.220363-357.220362-357.220363-196.973419 0-357.224428 160.246943-357.224428 357.220363z m357.224428-324.70107c179.03903 0 324.70107 145.662041 324.70107 324.70107s-145.662041 324.70107-324.70107 324.70107c-179.043094 0-324.705135-145.662041-324.705136-324.70107s145.662041-324.70107 324.705136-324.70107z" fill="#6E6E96" p-id="9471"></path><path d="M467.533932 554.714091m-100.395185 0a100.395186 100.395186 0 1 0 200.790371 0 100.395186 100.395186 0 1 0-200.790371 0Z" fill="#FF8F8F" p-id="9472"></path><path d="M467.533932 470.578551c46.392836 0 84.135539 37.742704 84.13554 84.13554s-37.742704 84.135539-84.13554 84.135539-84.135539-37.742704-84.135539-84.135539 37.742704-84.135539 84.135539-84.13554z m-116.654831 84.13554c0 64.32316 52.331671 116.654832 116.654831 116.654831s116.654832-52.331671 116.654832-116.654831-52.331671-116.654832-116.654832-116.654832-116.654832 52.331671-116.654831 116.654832z" fill="#6E6E96" p-id="9473"></path><path d="M57.404681 594.363238c0-236.972149 192.103655-429.071739 429.067674-429.071739 164.535425 0 307.413001 92.62714 379.402585 228.565912-63.802852-156.921846-217.765442-267.568738-397.601194-267.568739-236.964019 0-429.067674 192.09959-429.067674 429.07174 0 72.424529 17.970974 140.641875 49.652895 200.477373-20.259519-49.843946-31.454286-104.350345-31.454286-161.474547z" fill="#FFFFFF" p-id="9474"></path><path d="M618.427514 406.564324l17.796183-17.357172-17.369367 17.796182 183.112071 58.823336 199.066849-199.074979-180.351996-62.002096L758.671028 24.389469l-199.074979 199.070914z" fill="#FFDB7F" p-id="9475"></path><path d="M629.780812 418.202166l17.796183-17.357173a16.259646 16.259646 0 0 1-22.987075-22.995204l-17.361237 17.796183a16.259646 16.259646 0 0 0 6.65426 26.836546l183.112071 58.823335a16.259646 16.259646 0 0 0 16.475087-3.979549l199.066848-199.079043a16.251516 16.251516 0 0 0-6.215249-26.87313l-180.351996-62.002096a16.247451 16.247451 0 0 1 10.085045 10.08911L774.044523 19.105084a16.251516 16.251516 0 0 0-26.87313-6.211185l-199.074978 199.070914a16.251516 16.251516 0 0 0-3.983614 16.471022l58.83553 183.103941a16.259646 16.259646 0 0 0 26.832481 6.66239z m-58.689193-183.242148l199.074979-199.070914a16.259646 16.259646 0 0 1-26.87313-6.211185l62.010225 180.360126a16.239322 16.239322 0 0 0 10.085046 10.089111l180.351996 62.002095a16.271841 16.271841 0 0 1-10.56064-11.715075 16.271841 16.271841 0 0 1 4.34539-15.158055l-199.066849 199.074979a16.247451 16.247451 0 0 1 16.471022-3.983614l-183.112071-58.823335a16.259646 16.259646 0 0 1 6.65426 26.836546l17.365302-17.796182a16.259646 16.259646 0 0 0-22.987074-22.995205l-17.796183 17.357172a16.263711 16.263711 0 0 1 26.836546 6.66239l-58.81927-183.099876a16.243387 16.243387 0 0 1-3.979549 16.471022z" fill="#6E6E96" p-id="9476"></path><path d="M481.590397 566.949474l339.509543-339.505478a16.259646 16.259646 0 1 0-22.99114-22.995204l-339.513608 339.505478a16.259646 16.259646 0 1 0 22.995205 22.995204z" fill="#6E6E96" p-id="9477"></path><path d="M952.904697 302.579822l-173.713995-62.002096a16.247451 16.247451 0 0 1 9.918384 10.060656L727.379339 69.87583a16.259646 16.259646 0 1 0-30.767316 10.507796l61.729747 180.762552a16.267776 16.267776 0 0 0 9.918384 10.060656l173.709931 62.002096a16.259646 16.259646 0 1 0 10.934612-30.629108z" fill="#6E6E96" p-id="9478"></path><path d="M901.605513 351.094541l-173.713995-62.002096a16.251516 16.251516 0 0 1 9.910254 10.032202L677.580107 123.707453a16.259646 16.259646 0 1 0-30.751056 10.560641l60.2176 175.417193a16.259646 16.259646 0 0 0 9.910255 10.032202l173.70993 62.002096a16.259646 16.259646 0 0 0 10.938677-30.625044z" fill="#6E6E96" p-id="9479"></path><path d="M850.436406 402.503477l-173.713995-62.002096a16.255581 16.255581 0 0 1 9.963098 10.182604L627.83372 173.653022a16.259646 16.259646 0 1 0-30.864874 10.259836l58.855855 177.030964a16.255581 16.255581 0 0 0 9.963098 10.182603l173.70993 62.002096a16.259646 16.259646 0 0 0 10.938677-30.625044z" fill="#6E6E96" p-id="9480"></path><path d="M893.057004 456.331036a437.98609 437.98609 0 0 1 4.077106 59.453397c0 239.512719-194.164565 433.661024-433.669154 433.661024-204.208962 0-375.410842-141.154054-421.454095-331.204929 28.986884 211.371336 210.25755 374.207628 429.583918 374.207628 239.504589 0 433.669154-194.156436 433.669154-433.669154a434.579694 434.579694 0 0 0-12.206929-102.447966z" fill="#6E6E96" opacity=".15" p-id="9481"></path><path d="M530.414049 346.993045c75.306551 29.425895 128.682905 102.643082 128.682905 188.376132 0 111.691575-90.54184 202.233415-202.233414 202.233414s-202.22935-90.54184-202.22935-202.233414a201.278161 201.278161 0 0 1 29.596621-105.362508 221.472641 221.472641 0 0 0-41.791356 129.751977c0 122.914796 99.643177 222.557973 222.553908 222.557973 122.914796 0 222.557973-99.643177 222.557972-222.557973 0-100.143161-66.156436-184.823399-157.137286-212.765601zM754.597987 432.7139l174.144876-174.144876 42.380767 15.097082-173.640826 173.644891zM626.528883 379.890374l179.888596-179.884531-18.714853-41.161294-175.433453 175.425323z" fill="#6E6E96" opacity=".15" p-id="9482"></path><path d="M781.373559 456.448919c2.609673 16.743371 3.979548 33.889168 3.979548 51.352027 0 183.36816-149.190384 332.562609-332.558544 332.56261-150.381403 0-277.698498-100.358601-318.672806-237.598146 24.763441 159.076249 162.669631 281.210581 328.583061 281.210582 183.36816 0 332.558544-149.186319 332.558544-332.558545a331.359395 331.359395 0 0 0-13.889803-94.968528z" fill="#6E6E96" opacity=".15" p-id="9483"></path></svg>